<svg width="476" height="81" viewBox="0 0 476 81" fill="none" xmlns="http://www.w3.org/2000/svg">
<g clip-path="url(#clip0_911_3149)">
<path d="M20.5705 0.212891H0V80.9999H20.5705V0.212891Z" fill="#EE3524"/>
<path fill-rule="evenodd" clip-rule="evenodd" d="M51.3143 34.9696V81H30.749V35.7073V32.9694C30.749 29.5976 30.9621 26.4389 31.596 23.8049C32.022 21.1709 32.8689 18.6459 34.0328 16.3288C35.1967 14.1156 36.6827 11.9076 38.4857 9.90225C41.2447 6.74351 44.6376 4.3173 48.4514 2.53011C52.3743 0.846835 56.4011 0 60.537 0C66.5798 0 72.3057 1.89629 77.6055 5.58495C83.0196 1.89629 88.7455 0 94.7883 0C97.8642 0 100.727 0.42082 103.59 1.26246C106.349 2.1041 109.103 3.47566 111.649 5.26284C114.195 6.94612 116.419 8.95151 118.331 11.3725C119.921 13.3727 121.194 15.3729 122.15 17.3783C123.106 19.3785 123.74 21.6956 124.166 24.2257C124.696 26.6467 124.909 29.2807 124.909 32.2317V35.7073V81H104.338V34.9696V32.5486C104.338 28.8599 103.912 26.335 103.065 24.8595C102.431 23.701 101.475 22.7554 100.202 22.1216C98.9294 21.3839 97.6564 21.067 96.2795 21.067C94.7935 21.067 93.4166 21.3839 92.2527 22.1216C90.9797 22.8593 90.0237 23.914 89.3898 25.1764C88.5428 26.6519 88.1168 29.2859 88.1168 33.1824V34.9748V81.0052H67.5463V34.9748V33.1824C67.5463 29.0729 67.0163 26.4389 66.2733 25.1764C65.5303 23.8049 64.5794 22.8593 63.4103 22.1216C62.2465 21.3839 60.8644 21.067 59.3835 21.067C57.4766 21.067 55.8867 21.5917 54.6137 22.5424C53.2368 23.488 52.3847 24.8595 51.8547 26.5428C51.6417 27.7014 51.4286 29.3846 51.3247 31.5978V32.5434C51.3247 32.7564 51.3247 33.0681 51.3247 33.598V34.9696H51.3143Z" fill="#EE3524"/>
<path fill-rule="evenodd" clip-rule="evenodd" d="M238.985 81H218.518V21.4878H202.296V0H255.206V21.4878H238.985V81Z" fill="#EE3524"/>
<path fill-rule="evenodd" clip-rule="evenodd" d="M194.56 36.549V81H173.99V59.3044H155.435V81H134.974V36.549V33.598C134.974 30.1224 135.291 27.0675 135.717 24.5374C136.143 22.0073 136.881 19.5863 137.946 17.2692C138.902 15.056 140.17 12.9519 141.759 11.0556C144.518 7.47604 147.911 4.84202 151.938 2.84183C155.861 0.945546 160.101 0 164.767 0C169.22 0 173.356 0.841639 177.169 2.63402C181.092 4.4264 184.485 7.05522 187.244 10.427C189.894 13.4818 191.697 16.8536 192.866 20.3292C194.03 23.9088 194.56 28.3352 194.56 33.6032V36.549V36.549ZM155.222 41.2871H173.673V33.598C173.673 30.1224 173.356 27.5923 172.613 26.0129C171.87 24.5374 170.81 23.275 169.324 22.3242C167.838 21.3787 166.144 20.9527 164.445 20.9527C162.642 20.9527 160.948 21.4774 159.358 22.532C157.872 23.5867 156.708 24.953 156.069 26.6415C155.435 28.0131 155.222 30.3302 155.222 33.5928V41.2871V41.2871Z" fill="#EE3524"/>
<path fill-rule="evenodd" clip-rule="evenodd" d="M432.375 33.598V80.9948H411.805V36.549V33.598C411.909 28.0131 412.548 23.275 413.821 19.5915C414.985 16.0119 417.11 12.5363 420.18 9.26842C425.906 3.05484 433.014 0 441.598 0C446.051 0 450.291 0.841639 454.11 2.63402C458.032 4.4264 461.321 7.05522 464.184 10.427C466.73 13.4818 468.637 16.8536 469.806 20.3292C470.97 23.9088 471.5 28.3352 471.5 33.598V36.549V81H450.93V33.598V31.5978C450.93 28.1222 450.187 25.4882 448.597 23.5919C447.007 21.7995 444.778 20.9579 441.811 20.9579C439.052 20.9579 436.828 21.9034 435.025 23.9088C433.222 25.909 432.375 28.4391 432.375 31.5978V33.598Z" fill="#EE3524"/>
<path fill-rule="evenodd" clip-rule="evenodd" d="M283.196 81H262.943V0H284.36H286.797C291.463 0 295.277 0.316914 298.249 0.841639C301.008 1.36637 303.549 2.42101 305.991 3.89648C307.898 4.95113 309.488 6.21358 311.078 7.79296C312.564 9.37233 313.837 11.1647 314.896 13.061C315.956 14.9573 316.699 17.0614 317.126 19.0668C317.656 21.3839 317.869 23.5971 317.869 26.0181C317.869 29.8107 317.339 33.1824 316.066 36.1282C314.793 38.97 312.777 41.7131 310.023 44.3419C313.099 46.9759 315.219 49.8178 316.492 52.8726C317.765 55.9275 318.508 59.8239 318.508 64.4581V66.5622V80.9948H298.893V66.6714V64.6712C298.893 60.5617 298.046 57.6159 296.347 55.7196C294.757 54.0364 291.998 53.0856 288.288 53.0856H283.306V37.2867H287.971C291.26 37.2867 293.801 36.549 295.604 34.9696C297.407 33.598 298.254 31.39 298.254 28.4391C298.254 26.7558 297.937 25.1764 297.194 23.8049C296.451 22.5424 295.391 21.4878 294.014 20.854C292.528 20.1162 290.834 19.7993 288.927 19.7993H286.698H283.306L283.196 81Z" fill="#EE3524"/>
<path fill-rule="evenodd" clip-rule="evenodd" d="M471.209 7.07605H471.594C471.978 7.07605 472.212 7.15398 472.519 7.30464C472.752 7.38257 472.903 7.61117 473.059 7.83976C473.215 8.06835 473.215 8.30214 473.215 8.60867C473.215 8.99312 473.137 9.29964 472.908 9.60616C472.675 9.83476 472.368 10.0685 471.906 10.0685C472.139 10.1465 472.29 10.2971 472.446 10.453C472.602 10.6816 472.752 10.9154 472.986 11.3726L473.527 12.448H472.29L471.906 11.6012C471.672 11.2167 471.521 10.9102 471.443 10.6816C471.365 10.6037 471.287 10.5257 471.209 10.5257V9.37238C471.516 9.37238 471.75 9.29445 471.906 9.21652C472.061 9.13859 472.212 8.90999 472.212 8.60347C472.212 8.37488 472.056 8.21902 471.906 8.14109C471.75 7.98523 471.521 7.9125 471.209 7.9125V7.07605ZM471.209 14.7495H471.365C472.217 14.7495 472.986 14.5209 473.683 14.1365C474.379 13.6741 474.919 13.061 475.382 12.2921C475.766 11.5232 476 10.6816 476 9.75683C476 9.06585 475.844 8.37488 475.615 7.76183C475.382 7.14878 475.075 6.60847 474.613 6.15129C474.228 5.6889 473.688 5.38238 473.142 5.07586C472.602 4.84727 471.984 4.69141 471.365 4.69141H471.209V5.6889C471.287 5.6889 471.287 5.6889 471.365 5.6889C472.061 5.6889 472.68 5.84476 473.22 6.22402C473.838 6.60847 474.223 7.07086 474.613 7.6839C474.919 8.29695 475.075 8.98792 475.075 9.75683C475.075 10.4478 474.919 11.1388 474.613 11.7518C474.228 12.3649 473.838 12.9052 473.22 13.2117C472.68 13.5962 472.061 13.7468 471.365 13.7468C471.287 13.7468 471.287 13.7468 471.209 13.7468V14.7495V14.7495ZM470.284 12.448V10.2244H470.518C470.752 10.2244 470.903 10.3023 470.981 10.3803C471.059 10.3803 471.137 10.4582 471.215 10.5361V9.38277C471.137 9.38277 471.137 9.38277 471.059 9.38277H470.284V7.92289H471.137H471.215V7.07605H469.282V12.448H470.284V12.448ZM471.209 4.6966C470.435 4.77453 469.666 4.92519 469.048 5.38758C468.274 5.84996 467.733 6.463 467.349 7.23191C466.886 8.00082 466.73 8.84245 466.73 9.76722C466.73 10.6868 466.886 11.5336 467.349 12.3025C467.733 13.0714 468.274 13.6845 469.048 14.1469C469.666 14.5313 470.44 14.7599 471.209 14.7599V13.7624C470.591 13.7624 470.051 13.6065 469.51 13.2273C468.892 12.9208 468.43 12.3805 468.118 11.7674C467.811 11.1544 467.577 10.4634 467.577 9.77241C467.577 9.00351 467.811 8.31253 468.118 7.69949C468.424 7.08644 468.892 6.62406 469.51 6.23961C470.051 5.93308 470.591 5.70449 471.209 5.70449V4.6966Z" fill="#EE3524"/>
<path fill-rule="evenodd" clip-rule="evenodd" d="M363.883 81C384.558 81 401.418 63.2009 401.418 41.3962C401.418 19.4876 384.558 1.68848 363.883 1.68848C343.209 1.68848 326.348 19.4876 326.348 41.3962C326.348 63.1957 343.209 81 363.883 81ZM363.883 61.4085C353.388 61.4085 344.903 52.457 344.903 41.3962C344.903 30.3354 353.382 21.28 363.883 21.28C374.379 21.28 382.864 30.3406 382.864 41.3962C382.864 52.4518 374.379 61.4085 363.883 61.4085Z" fill="#EE3524"/>
</g>
<defs>
<clipPath id="clip0_911_3149">
<rect width="476" height="81" fill="white"/>
</clipPath>
</defs>
</svg>
